<svg height="512" viewBox="0 0 58 60" width="512" xmlns="http://www.w3.org/2000/svg"><g id="Page-1" fill="white"><g id="091---Search-File" fill="white" fill-rule="nonzero"><path id="Shape" d="m0 24v31c.00330612 2.7600532 2.23994685 4.9966939 5 5h36c1.3268786.0037898 2.6001355-.5233731 3.536-1.464.3789722-.3923789.3735524-1.0160848-.0121814-1.4018186s-1.0094397-.3911536-1.4018186-.0121814c-.5618214.5641204-1.3258404.8802414-2.122.878h-36c-1.65685425 0-3-1.3431458-3-3v-30.546l12.1-10.589c1.106982-.9684242 1.7314278-2.3751201 1.7071522-3.8457204-.0242755-1.4706003-.6948099-2.85591959-1.8331522-3.7872796l-5.174-4.232h32.2c1.6568542 0 3 1.34314575 3 3v14c0 .5522847.4477153 1 1 1s1-.4477153 1-1v-14c-.0033061-2.76005315-2.2399468-4.99669388-5-5h-35c-.4701869.00002454-.87685019.32760285-.977.787l-5 23c-.01511509.069997-.02282419.1413899-.023.213zm6.63-21.192 6.078 4.973c.682424.55876051 1.0843906 1.38951185 1.0990307 2.2713857.0146401.8818738-.3595298 1.7255099-1.0230307 2.3066143l-10.163 8.893z"/><path id="Shape" d="m6 26c0-.5522847-.44771525-1-1-1s-1 .4477153-1 1v2c0 .5522847.44771525 1 1 1s1-.4477153 1-1z"/><path id="Shape" d="m5 31c-.55228475 0-1 .4477153-1 1v18c0 .5522847.44771525 1 1 1s1-.4477153 1-1v-18c0-.5522847-.44771525-1-1-1z"/><path id="Shape" d="m21 9c.5522847 0 1-.44771525 1-1s-.4477153-1-1-1h-2c-.5522847 0-1 .44771525-1 1s.4477153 1 1 1z"/><path id="Shape" d="m39 7h-14c-.5522847 0-1 .44771525-1 1s.4477153 1 1 1h14c.5522847 0 1-.44771525 1-1s-.4477153-1-1-1z"/><path id="Shape" d="m17 14c0 .5522847.4477153 1 1 1h4c.5522847 0 1-.4477153 1-1s-.4477153-1-1-1h-4c-.5522847 0-1 .4477153-1 1z"/><path id="Shape" d="m39 13h-13c-.5522847 0-1 .4477153-1 1s.4477153 1 1 1h13c.5522847 0 1-.4477153 1-1s-.4477153-1-1-1z"/><path id="Shape" d="m40.565 25.6c-1.7422295-1.7485375-3.9845029-2.9128285-6.417-3.332-.355197-.0688386-.7198755.0595535-.9536019.3357339s-.3000437.6570701-.1734139.9959927.4264548.5830125.7840158.6382734c4.8714449.8599462 8.37761 5.1589661 8.2404106 10.1038279-.1371994 4.9448619-3.8763467 9.0428544-8.7879801 9.6313608-4.9116334.5885065-9.5130723-2.5101264-10.8145922-7.2826025-1.30152-4.7724762 1.0897705-9.7781225 5.6201617-11.7645862.4882913-.2313427.7045065-.8087246.4882756-1.3038933-.2162308-.4951687-.786697-.7290216-1.2882756-.5281067-4.821054 2.1119371-7.7031732 7.1189916-7.107987 12.3485799s4.5287406 9.4609423 9.7010747 10.4355189c5.1723341.9745767 10.3760452-1.5351242 12.8335812-6.1895153s1.5952225-10.3669757-2.1266689-14.0885835z"/><path id="Shape" d="m48.54 44.883-2.69-2.691c4.0974172-6.94757 2.3890311-15.8581343-3.9874369-20.7975891-6.376468-4.9394547-15.431211-4.3664198-21.1341075 1.3374848s-6.2743309 14.7587488-1.3337492 21.1343436c4.9405818 6.3755947 13.8514479 8.0824059 20.7982936 3.9837607l2.69 2.689c-.1860786.6871875.0087315 1.4214425.511 1.926l6.363 6.363c.7501514.7501901 1.7675983 1.1716458 2.8285 1.1716458s2.0783486-.4214557 2.8285-1.1716458l1.414-1.414c1.5615278-1.5619994 1.5615278-4.0940006 0-5.656l-6.364-6.364c-.5042502-.5013686-1.23743-.6960957-1.924-.511zm-26.36-.9c-5.4669296-5.4674875-5.4666281-14.3315375.0006734-19.7986531 5.4673016-5.4671156 14.3313516-5.4671156 19.7986532 0 5.4673015 5.4671156 5.467603 14.3311656.0006734 19.7986531-5.4724369 5.4575373-14.3297686 5.455748-19.8-.004zm21.214 1.415c.4699452-.4762518.909479-.9815821 1.316-1.513l2.219 2.22-1.414 1.414-1.415 1.41-2.22-2.219c.5315209-.4067819 1.0371681-.8463008 1.514-1.316zm12.606 9.188c.0014371.5306972-.2095879 1.0398938-.586 1.414l-1.414 1.414c-.7915033.7559402-2.0374967.7559402-2.829 0l-6.363-6.364 4.242-4.242 6.364 6.364c.3764121.3741062.5874371.8833028.586 1.414z"/></g></g></svg>